<?xml version="1.0" encoding="UTF-8"?>
<svg width="31.031" height="29.924" version="1.1" viewBox="0 0 31.031214 29.924433" xmlns="http://www.w3.org/2000/svg">
<g transform="translate(-14.022 -18.173)" data-name="Layer 21">
<path d="m43.075 32.997a3.38 3.38 0 0 0 -1.87 -5.75l-5.25-0.79a1.42 1.42 0 0 1 -1 -0.75l-2.42-4.74a3.37 3.37 0 0 0 -6 0l-2.39 4.74a1.42 1.42 0 0 1 -1 0.75l-5.25 0.79a3.38 3.38 0 0 0 -1.9 5.75l3.78 3.72a1.4 1.4 0 0 1 0.4 1.21l-0.87 5.23a3.35 3.35 0 0 0 1.34 3.29 3.4 3.4 0 0 0 2 0.65 3.37 3.37 0 0 0 1.56 -0.39l4.7-2.44a1.38 1.38 0 0 1 1.28 0l4.7 2.44a3.37 3.37 0 0 0 4.89 -3.55l-0.87-5.23a1.4 1.4 0 0 1 0.4 -1.21z" fill="#f7c761" stroke="#704728" stroke-width="2" style="paint-order:normal"/>
</g>
</svg>
